<svg t="1690257678202" class="icon" viewBox="0 0 1024 1024" version="1.1" xmlns="http://www.w3.org/2000/svg" p-id="2813" width="200" height="200"><path d="M512 512m-472.97536 0a472.97536 472.97536 0 1 0 945.95072 0 472.97536 472.97536 0 1 0-945.95072 0Z" fill="#FFEC43" p-id="2814"></path><path d="M512 994.85184c-266.25024 0-482.86208-216.61184-482.86208-482.86208S245.74976 29.14816 512 29.14816s482.86208 216.59648 482.86208 482.84672-216.61184 482.85696-482.86208 482.85696z m0-945.9456c-255.34976 0-463.08864 207.74912-463.08864 463.08864 0 255.35488 207.73888 463.104 463.08864 463.104s463.08864-207.74912 463.08864-463.104c0-255.34464-207.73888-463.08864-463.08864-463.08864z" fill="#6B0204" p-id="2815"></path><path d="M512 262.8096c-146.87744 0-265.94816 102.99904-265.94816 230.05696S411.88352 761.18528 512 761.18528c104.60672 0 265.94816-141.26592 265.94816-268.32384S658.88256 262.8096 512 262.8096z m-102.57408 360.02304c-30.08512 9.99936-65.94048-16.41472-80.08704-58.98752-14.14656-42.57792-1.23392-85.1968 28.8512-95.19104 30.08512-9.99936 65.94048 16.41472 80.08704 58.98752 14.15168 42.5728 1.23392 85.19168-28.8512 95.19104z m292.8896-58.99264c-14.14656 42.57792-50.00704 68.98688-80.08704 58.98752-30.08512-9.99936-42.99776-52.61824-28.8512-95.19104s50.00704-68.98688 80.08704-58.98752c30.08512 9.99936 43.00288 52.61824 28.8512 95.19104z" fill="#5EB1BE" p-id="2816"></path><path d="M512 771.06176c-108.90752 0-275.84-149.21216-275.84-278.20032 0-132.30592 123.74528-239.92832 275.84-239.92832s275.84 107.6224 275.84 239.92832c0 131.6608-164.41856 278.20032-275.84 278.20032z m0-498.37056c-141.19424 0-256.06144 98.77504-256.06144 220.17024 0 117.3248 157.27616 258.44736 256.06144 258.44736 101.10464 0 256.06144-138.62912 256.06144-258.44736 0-121.3952-114.8672-220.17024-256.06144-220.17024z m123.39712 362.14272a51.5584 51.5584 0 0 1-16.2816-2.62144c-35.20512-11.6992-50.96448-59.99616-35.1232-107.70432 13.28128-39.95136 44.65664-67.8656 76.29824-67.8656 5.5808 0 11.0592 0.88576 16.29184 2.62144 35.20512 11.71456 50.95424 60.032 35.11296 107.70432-13.28128 39.95136-44.65664 67.8656-76.29824 67.8656z m24.89344-158.41792c-22.87104 0-47.06816 22.84544-57.53344 54.33344-12.39552 37.34528-2.26816 74.4448 22.58944 82.69824 24.51456 8.09472 55.54688-16.47616 67.59424-52.72576 12.40576-37.32992 2.26816-74.42944-22.58944-82.69824a32.1024 32.1024 0 0 0-10.0608-1.60768z m-264.0384 158.41792c-31.6416 0-63.01184-27.91424-76.29824-67.8656-15.83104-47.68768-0.08192-95.98976 35.11296-107.70432a51.64032 51.64032 0 0 1 16.29184-2.62144c31.6416 0 63.01184 27.91424 76.29824 67.8656 7.48032 22.52288 8.27904 45.88544 2.24256 65.80736-6.41024 21.14048-19.67616 36.02432-37.36064 41.89696a51.5584 51.5584 0 0 1-16.28672 2.62144zM371.36384 476.416a32.0512 32.0512 0 0 0-10.05568 1.60768c-24.85248 8.2688-34.98496 45.37344-22.58944 82.69824 12.04224 36.2496 43.1104 60.78464 67.59936 52.72576 11.4176-3.79904 20.16768-14.04416 24.66304-28.86656 4.85888-16.04096 4.11648-35.16928-2.08384-53.8368C418.432 499.26656 394.24 476.416 371.36384 476.416z" fill="#6C0000" p-id="2817"></path></svg>